<?xml version="1.0" encoding="utf-8"?>
<!-- Svg Vector Icons : http://www.onlinewebfonts.com/icon -->
<!DOCTYPE svg PUBLIC "-//W3C//DTD SVG 1.1//EN" "http://www.w3.org/Graphics/SVG/1.1/DTD/svg11.dtd">
<svg version="1.1" xmlns="http://www.w3.org/2000/svg" xmlns:xlink="http://www.w3.org/1999/xlink" x="0px" y="0px" viewBox="0 0 256 256" enable-background="new 0 0 256 256" xml:space="preserve">
<metadata> Svg Vector Icons : http://www.onlinewebfonts.com/icon </metadata>
<g><g><g><path fill="#000000" d="M33.6,10.8C32,11.2,29,12.3,27,13.3c-5.1,2.5-11.2,8.6-13.7,13.7C9.8,34.1,10,27,10,128c0,101.1-0.2,93.9,3.3,101c2.5,5.1,8.6,11.2,13.7,13.7c7.2,3.5-0.1,3.4,102.3,3.2c102.4-0.1,92.8,0.2,100.1-3.3c4.7-2.3,10.9-8.6,13.4-13.5c3.4-7,3.3-0.6,3.3-101.2c0-100.8,0.2-93.6-3.3-100.8c-2.5-5.1-8.6-11.2-13.7-13.7c-7.1-3.5,0.1-3.3-101.2-3.3C49.8,10.1,36,10.2,33.6,10.8z M218.1,22.7c7.8,1.5,13.8,7.5,15.2,15.2c0.7,4.1,0.7,176.2,0,180.3c-1.4,7.7-7.4,13.7-15.2,15.2c-4,0.7-176.1,0.7-180.2,0c-7.7-1.4-13.7-7.4-15.2-15.2c-0.7-3.9-0.7-175.4,0-179.9c1.3-7.8,7.5-14.2,15.1-15.5C41.7,22.1,214.6,22,218.1,22.7z"/><path fill="#000000" d="M126.1,64.9c-0.9,0.2-2.4,1.2-3.4,2.1l-1.7,1.7l-0.1,39.2c-0.1,38.4-0.1,39.2,0.9,40.8c2.9,4.7,9.8,4.7,12.6,0c1-1.6,1-2.4,0.9-40.8L135,68.8l-1.7-1.7c-1.5-1.6-2.2-1.9-4.9-2.4C128.1,64.6,127,64.7,126.1,64.9z"/><path fill="#000000" d="M123.8,165.6c-7.3,3.4-7.2,14,0.1,17.3c7,3.2,14.6-2.3,13.7-9.9c-0.4-3.3-2.1-5.8-5.2-7.3C129.1,164.1,127,164.1,123.8,165.6z"/></g></g></g>
</svg>